<svg xmlns="http://www.w3.org/2000/svg" xmlns:xlink="http://www.w3.org/1999/xlink" width="44" height="44" viewBox="0 0 44 44">
  <defs>
    <filter id="Ellipse_754" x="0" y="0" width="44" height="44" filterUnits="userSpaceOnUse">
      <feOffset dy="3" input="SourceAlpha"/>
      <feGaussianBlur stdDeviation="3" result="blur"/>
      <feFlood flood-opacity="0.161"/>
      <feComposite operator="in" in2="blur"/>
      <feComposite in="SourceGraphic"/>
    </filter>
    <clipPath id="clip-path">
      <rect width="12.797" height="12.797" fill="none"/>
    </clipPath>
  </defs>
  <g id="Group_3187" data-name="Group 3187" transform="translate(8.69 6)">
    <g transform="matrix(1, 0, 0, 1, -8.69, -6)" filter="url(#Ellipse_754)">
      <circle id="Ellipse_754-2" data-name="Ellipse 754" cx="13" cy="13" r="13" transform="translate(9 6)" fill="#fff"/>
    </g>
    <g id="Component_10_14" data-name="Component 10 – 14" transform="translate(6.86 6.598)" clip-path="url(#clip-path)">
      <path id="XMLID_17_" d="M1.6,12.8a1.452,1.452,0,0,1-1.12-.48,1.546,1.546,0,0,1,0-2.239l9.6-9.6a1.546,1.546,0,0,1,2.239,0,1.546,1.546,0,0,1,0,2.239l-9.6,9.6A1.452,1.452,0,0,1,1.6,12.8Z" transform="translate(0 0)" fill="#f72377"/>
      <path id="XMLID_19_" d="M11.2,12.8a1.452,1.452,0,0,1-1.12-.48l-9.6-9.6A1.546,1.546,0,0,1,.48.48a1.546,1.546,0,0,1,2.239,0l9.6,9.6a1.546,1.546,0,0,1,0,2.239A1.452,1.452,0,0,1,11.2,12.8Z" transform="translate(0 0)" fill="#f72377"/>
    </g>
  </g>
</svg>
