<svg xmlns="http://www.w3.org/2000/svg" width="124" height="47.438" viewBox="0 0 124 47.438">
  <g id="Group_10259" data-name="Group 10259" transform="translate(-596.045 -1705.859)">
    <g id="Group_10254" data-name="Group 10254" transform="translate(596.045 1705.859)">
      <path id="Path_27293" data-name="Path 27293" d="M651.993,1759.4l.294-.2a3.116,3.116,0,0,0,0-5.116l-.294-.2a3.13,3.13,0,0,0-3.649.188l-.059.045a3.154,3.154,0,0,0,0,5.049l.059.046A3.131,3.131,0,0,0,651.993,1759.4Z" transform="translate(-623.803 -1732.967)" fill="#e4003d"/>
      <g id="Group_10253" data-name="Group 10253">
        <path id="Path_27294" data-name="Path 27294" d="M617.584,1737.718h0a33.647,33.647,0,0,0-4.2-2.949,30.383,30.383,0,0,0-5.421-2.536,30.4,30.4,0,0,0,5.421-2.536,33.637,33.637,0,0,0,4.2-2.95,38.138,38.138,0,0,0,9.953-12.627,36.959,36.959,0,0,0,2.241-5.557h-5.8a33.807,33.807,0,0,1-11.481,16.432,29.023,29.023,0,0,1-4.767,2.965,25.405,25.405,0,0,1-9.856,2.627c-.429.024-.86.039-1.3.04h-.024c-.073,0-.146.01-.219.015l-.293.02h0v3.14h0l.331.022.181.013h.024c.436,0,.868.016,1.3.04a25.4,25.4,0,0,1,9.856,2.627,29,29,0,0,1,4.767,2.964,33.809,33.809,0,0,1,11.481,16.432h5.8a36.984,36.984,0,0,0-2.241-5.558A38.147,38.147,0,0,0,617.584,1737.718Z" transform="translate(-596.045 -1708.561)" fill="#e4003d"/>
        <path id="Path_27295" data-name="Path 27295" d="M606.136,1774.764a24.314,24.314,0,0,0-10.091-3.453v3.427a23.47,23.47,0,0,1,13.286,8.621,24.7,24.7,0,0,1,3.746,6.714h5.277a29.043,29.043,0,0,0-12.218-15.309Zm-7.638-.3a33.211,33.211,0,0,0,5.053.4A33.211,33.211,0,0,1,598.5,1774.466Z" transform="translate(-596.045 -1742.731)" fill="#e4003d"/>
        <path id="Path_27296" data-name="Path 27296" d="M614.666,1715.817a28.192,28.192,0,0,0,3.688-7.256h-5.277a24.7,24.7,0,0,1-3.746,6.714,23.47,23.47,0,0,1-13.286,8.621v3.427a24.315,24.315,0,0,0,10.091-3.453A28.339,28.339,0,0,0,614.666,1715.817Z" transform="translate(-596.045 -1708.561)" fill="#e4003d"/>
      </g>
    </g>
    <g id="Group_10257" data-name="Group 10257" transform="translate(640.141 1705.867)">
      <g id="Group_10256" data-name="Group 10256" transform="translate(0 4.857)">
        <g id="Group_10255" data-name="Group 10255">
          <path id="Path_27297" data-name="Path 27297" d="M696.6,1726.138v10.209h-3.742v-22.814H696.6v10.4l8.863-10.4h4.694l-9.913,11.423,10.078,11.391h-4.892Z" transform="translate(-692.861 -1713.533)" fill="#2b2e2f"/>
          <path id="Path_27298" data-name="Path 27298" d="M739.348,1741.646H735.6v-18.088h3.743v2.627a5.89,5.89,0,0,1,5.416-2.92v3.872h-.952c-2.757,0-4.464,1.15-4.464,4.991Z" transform="translate(-716.137 -1718.833)" fill="#2b2e2f"/>
          <path id="Path_27299" data-name="Path 27299" d="M760.4,1723.909h3.742V1742H760.4Z" transform="translate(-729.638 -1719.183)" fill="#2b2e2f"/>
          <path id="Path_27300" data-name="Path 27300" d="M776.543,1723.909h3.742V1742h-3.742Z" transform="translate(-738.429 -1719.183)" fill="#2b2e2f"/>
          <path id="Path_27301" data-name="Path 27301" d="M802.735,1723.265c4.759,0,8.5,3.675,8.5,9.255s-3.742,9.422-8.5,9.422a8.172,8.172,0,0,1-6.3-2.923v11.227H792.69v-26.688h3.742v2.659A7.89,7.89,0,0,1,802.735,1723.265Zm-.821,3.248c-2.79,0-5.482,2.2-5.482,6.074,0,3.906,2.692,6.1,5.482,6.1,2.822,0,5.514-2.264,5.514-6.171S804.736,1726.513,801.914,1726.513Z" transform="translate(-747.222 -1718.833)" fill="#2b2e2f"/>
          <path id="Path_27302" data-name="Path 27302" d="M844.064,1741.942c-4.332,0-7.386-2.56-7.55-5.843h3.873c.131,1.478,1.543,2.692,3.61,2.692,2.167,0,3.316-.919,3.316-2.166,0-3.546-10.5-1.512-10.5-8.142,0-2.888,2.692-5.218,6.959-5.218,4.1,0,6.8,2.2,6.993,5.808h-3.742c-.132-1.575-1.346-2.66-3.381-2.66-2,0-3.053.822-3.053,2.036,0,3.643,10.209,1.609,10.406,8.141C850.99,1739.645,848.331,1741.942,844.064,1741.942Z" transform="translate(-771.086 -1718.833)" fill="#2b2e2f"/>
        </g>
      </g>
      <path id="Path_27303" data-name="Path 27303" d="M759.317,1705.264a2.38,2.38,0,1,1,2.4,2.4A2.368,2.368,0,0,1,759.317,1705.264Z" transform="translate(-729.049 -1702.868)" fill="#e4003d"/>
      <path id="Path_27304" data-name="Path 27304" d="M775.461,1705.264a2.38,2.38,0,1,1,2.4,2.4A2.368,2.368,0,0,1,775.461,1705.264Z" transform="translate(-737.84 -1702.868)" fill="#e4003d"/>
    </g>
    <g id="Group_10258" data-name="Group 10258" transform="translate(640.141 1744.643)">
      <path id="Path_27305" data-name="Path 27305" d="M696.146,1803.392h-3.285v-7.619H696c1.594,0,2.478.829,2.478,1.964a1.756,1.756,0,0,1-1.3,1.746,1.847,1.847,0,0,1,1.473,1.845C698.656,1802.541,697.728,1803.392,696.146,1803.392Zm-.36-6.385h-1.4v1.91h1.4c.72,0,1.135-.327,1.135-.95S696.506,1797.007,695.786,1797.007Zm.109,3.089h-1.506v2.051h1.539c.742,0,1.179-.36,1.179-1S696.638,1800.1,695.9,1800.1Z" transform="translate(-692.861 -1794.836)" fill="#7f828e"/>
      <path id="Path_27306" data-name="Path 27306" d="M723.981,1805.272h-1.539v-.764a2.228,2.228,0,0,1-1.8.841,2.33,2.33,0,0,1-2.423-2.576v-3.547h1.528v3.329a1.308,1.308,0,0,0,1.343,1.495c.829,0,1.353-.524,1.353-1.495v-3.329h1.539Z" transform="translate(-706.669 -1796.715)" fill="#7f828e"/>
      <path id="Path_27307" data-name="Path 27307" d="M746.168,1805.252a2.384,2.384,0,0,1-2.641-2.008h1.539a1,1,0,0,0,1.091.808c.6,0,.928-.273.928-.623,0-1.08-3.416-.393-3.416-2.608,0-1,.9-1.812,2.39-1.812a2.166,2.166,0,0,1,2.434,2h-1.462a.9.9,0,0,0-1.015-.786c-.568,0-.862.229-.862.578,0,1.1,3.35.415,3.394,2.63C748.547,1804.466,747.642,1805.252,746.168,1805.252Z" transform="translate(-720.451 -1796.597)" fill="#7f828e"/>
      <path id="Path_27308" data-name="Path 27308" d="M767.015,1794.608a.94.94,0,1,1,.939.9A.9.9,0,0,1,767.015,1794.608Zm.164,1.616h1.529v6.047h-1.529Z" transform="translate(-733.241 -1793.714)" fill="#7f828e"/>
      <path id="Path_27309" data-name="Path 27309" d="M788.338,1801.827a1.36,1.36,0,1,0-2.706,0v3.34H784.1v-6.047h1.529v.753a2.257,2.257,0,0,1,1.822-.841,2.326,2.326,0,0,1,2.412,2.587v3.547h-1.528Z" transform="translate(-742.546 -1796.61)" fill="#7f828e"/>
      <path id="Path_27310" data-name="Path 27310" d="M812.183,1805.252a3.123,3.123,0,0,1,0-6.243,2.839,2.839,0,0,1,2.98,2.991,3.569,3.569,0,0,1-.044.589H810.7a1.415,1.415,0,0,0,1.452,1.4,1.246,1.246,0,0,0,1.212-.731h1.648A2.81,2.81,0,0,1,812.183,1805.252Zm-1.474-3.689h2.871a1.343,1.343,0,0,0-1.441-1.3A1.4,1.4,0,0,0,810.709,1801.563Z" transform="translate(-756.185 -1796.597)" fill="#7f828e"/>
      <path id="Path_27311" data-name="Path 27311" d="M836.788,1805.252a2.384,2.384,0,0,1-2.641-2.008h1.539a1,1,0,0,0,1.091.808c.6,0,.928-.273.928-.623,0-1.08-3.416-.393-3.416-2.608,0-1,.9-1.812,2.39-1.812a2.166,2.166,0,0,1,2.434,2H837.65a.9.9,0,0,0-1.015-.786c-.567,0-.862.229-.862.578,0,1.1,3.35.415,3.394,2.63C839.167,1804.466,838.262,1805.252,836.788,1805.252Z" transform="translate(-769.797 -1796.597)" fill="#7f828e"/>
      <path id="Path_27312" data-name="Path 27312" d="M859.916,1805.252a2.384,2.384,0,0,1-2.641-2.008h1.539a1,1,0,0,0,1.091.808c.6,0,.928-.273.928-.623,0-1.08-3.416-.393-3.416-2.608,0-1,.9-1.812,2.39-1.812a2.166,2.166,0,0,1,2.434,2h-1.462a.9.9,0,0,0-1.015-.786c-.568,0-.862.229-.862.578,0,1.1,3.35.415,3.394,2.63C862.3,1804.466,861.39,1805.252,859.916,1805.252Z" transform="translate(-782.391 -1796.597)" fill="#7f828e"/>
    </g>
  </g>
</svg>
