<svg xmlns="http://www.w3.org/2000/svg" width="13.628" height="20" viewBox="0 0 13.628 20">
  <path id="Subtraction_4" data-name="Subtraction 4" d="M6.811,20c-.017,0-.06-.036-.126-.106a43.5,43.5,0,0,1-3.7-5.334C1.622,12.294,0,9.178,0,7.2A7.367,7.367,0,0,1,2,2.109a6.557,6.557,0,0,1,9.637,0,7.367,7.367,0,0,1,2,5.093c0,2.085-1.807,5.429-3.322,7.866A39.208,39.208,0,0,1,6.814,20h0Zm0-15.417A2.554,2.554,0,0,0,4.336,7.2,2.554,2.554,0,0,0,6.814,9.821,2.554,2.554,0,0,0,9.291,7.2,2.554,2.554,0,0,0,6.814,4.583Z" fill="#e60943"/>
</svg>
