<svg xmlns="http://www.w3.org/2000/svg" width="32" height="33.379" viewBox="0 0 32 33.379">
  <g id="upload" transform="translate(-1.9 -0.606)">
    <path id="Path_27391" data-name="Path 27391" d="M26.42,22.749a1.595,1.595,0,0,0,0,3.189,4.3,4.3,0,0,1,4.291,4.292v6.645a4.3,4.3,0,0,1-4.291,4.293H9.38a4.3,4.3,0,0,1-4.291-4.292V30.231a4.3,4.3,0,0,1,4.293-4.292,1.595,1.595,0,1,0,0-3.189A7.49,7.49,0,0,0,1.9,30.231v6.645a7.49,7.49,0,0,0,7.48,7.482H26.42a7.491,7.491,0,0,0,7.48-7.482V30.231A7.491,7.491,0,0,0,26.42,22.749Z" transform="translate(0 -10.373)" fill="#e4003d"/>
    <path id="Path_27392" data-name="Path 27392" d="M19.772,9.876a1.6,1.6,0,0,0,2.243-.235L24.4,6.695V23.181a1.595,1.595,0,1,0,3.189,0V6.695l2.386,2.944a1.595,1.595,0,1,0,2.478-2.007l-5.22-6.445c-.011-.013-.023-.022-.035-.035A1.606,1.606,0,0,0,27.047,1c-.021-.018-.04-.038-.062-.053A1.551,1.551,0,0,0,26.752.79C26.736.781,26.718.775,26.7.767A1.492,1.492,0,0,0,26.527.69c-.012,0-.024-.006-.036-.01a.682.682,0,0,0-.1-.024A1.48,1.48,0,0,0,26.215.62c-.035,0-.07-.009-.106-.011a1.518,1.518,0,0,0-.184,0,.67.67,0,0,0-.1,0,1.6,1.6,0,0,0-.266.049c-.019.005-.037.014-.056.021A1.563,1.563,0,0,0,25.3.762c-.029.014-.056.03-.085.046a1.611,1.611,0,0,0-.174.113c-.015.011-.032.019-.046.03a.33.33,0,0,0-.024.024,1.587,1.587,0,0,0-.18.179c-.009.011-.02.02-.029.03v0L19.537,7.633a1.6,1.6,0,0,0,.235,2.243Z" transform="translate(-8.095)" fill="#e4003d"/>
  </g>
</svg>
